<mxfile host="app.diagrams.net" agent="Mozilla/5.0 (Windows NT 10.0; Win64; x64) AppleWebKit/537.36 (KHTML, like Gecko) Chrome/114.0.0.0 Safari/537.36" version="25.0.3">
  <diagram id="C5RBs43oDa-KdzZeNtuy" name="Page-1">
    <mxGraphModel dx="1434" dy="764" grid="1" gridSize="10" guides="1" tooltips="1" connect="1" arrows="1" fold="1" page="1" pageScale="1" pageWidth="827" pageHeight="1169" math="0" shadow="0">
      <root>
        <mxCell id="WIyWlLk6GJQsqaUBKTNV-0" />
        <mxCell id="WIyWlLk6GJQsqaUBKTNV-1" parent="WIyWlLk6GJQsqaUBKTNV-0" />
        <mxCell id="Js1fneWw51zdOUYzD7Qs-46" value="boudlSql" style="rounded=0;whiteSpace=wrap;html=1;strokeColor=none;" parent="WIyWlLk6GJQsqaUBKTNV-1" vertex="1">
          <mxGeometry x="290" y="1020" width="80" height="20" as="geometry" />
        </mxCell>
        <mxCell id="Js1fneWw51zdOUYzD7Qs-23" value="" style="rounded=0;whiteSpace=wrap;html=1;dashed=1;strokeColor=#999999;fillStyle=hatch;fillColor=#FF8000;" parent="WIyWlLk6GJQsqaUBKTNV-1" vertex="1">
          <mxGeometry x="345" y="710" width="345" height="210" as="geometry" />
        </mxCell>
        <mxCell id="Js1fneWw51zdOUYzD7Qs-0" value="Actor" style="shape=umlActor;verticalLabelPosition=bottom;verticalAlign=top;html=1;outlineConnect=0;" parent="WIyWlLk6GJQsqaUBKTNV-1" vertex="1">
          <mxGeometry x="50" y="540" width="30" height="60" as="geometry" />
        </mxCell>
        <mxCell id="Js1fneWw51zdOUYzD7Qs-3" value="&lt;font style=&quot;font-size: 16px;&quot; face=&quot;Comic Sans MS&quot;&gt;SqlSessionFactorBuilder&lt;/font&gt;" style="rounded=1;whiteSpace=wrap;html=1;fontSize=12;glass=0;strokeWidth=1;shadow=0;fillColor=#1ba1e2;fontColor=#ffffff;strokeColor=#006EAF;" parent="WIyWlLk6GJQsqaUBKTNV-1" vertex="1">
          <mxGeometry x="170" y="540" width="510" height="60" as="geometry" />
        </mxCell>
        <mxCell id="Js1fneWw51zdOUYzD7Qs-4" value="" style="rounded=0;html=1;jettySize=auto;orthogonalLoop=1;fontSize=11;endArrow=block;endFill=0;endSize=8;strokeWidth=1;shadow=0;labelBackgroundColor=none;edgeStyle=orthogonalEdgeStyle;entryX=0;entryY=0.5;entryDx=0;entryDy=0;" parent="WIyWlLk6GJQsqaUBKTNV-1" source="Js1fneWw51zdOUYzD7Qs-0" target="Js1fneWw51zdOUYzD7Qs-3" edge="1">
          <mxGeometry x="0.3333" y="20" relative="1" as="geometry">
            <mxPoint as="offset" />
            <mxPoint x="230" y="380" as="sourcePoint" />
            <mxPoint x="230" y="440" as="targetPoint" />
          </mxGeometry>
        </mxCell>
        <mxCell id="Js1fneWw51zdOUYzD7Qs-5" value="&lt;font face=&quot;Comic Sans MS&quot;&gt;XMLConfigBuilder&lt;/font&gt;" style="rounded=1;whiteSpace=wrap;html=1;fontSize=12;glass=0;strokeWidth=1;shadow=0;gradientDirection=radial;fillStyle=hatch;fillColor=#d5e8d4;strokeColor=#82b366;gradientColor=#97d077;" parent="WIyWlLk6GJQsqaUBKTNV-1" vertex="1">
          <mxGeometry x="170" y="640" width="130" height="40" as="geometry" />
        </mxCell>
        <mxCell id="Js1fneWw51zdOUYzD7Qs-6" value="" style="curved=1;endArrow=blockThin;html=1;rounded=0;exitX=0.5;exitY=1;exitDx=0;exitDy=0;entryX=0.5;entryY=0;entryDx=0;entryDy=0;endFill=0;" parent="WIyWlLk6GJQsqaUBKTNV-1" source="Js1fneWw51zdOUYzD7Qs-3" target="Js1fneWw51zdOUYzD7Qs-5" edge="1">
          <mxGeometry width="50" height="50" relative="1" as="geometry">
            <mxPoint x="390" y="720" as="sourcePoint" />
            <mxPoint x="440" y="670" as="targetPoint" />
            <Array as="points">
              <mxPoint x="380" y="600" />
              <mxPoint x="370" y="630" />
            </Array>
          </mxGeometry>
        </mxCell>
        <mxCell id="Js1fneWw51zdOUYzD7Qs-7" value="IO读取" style="rounded=0;whiteSpace=wrap;html=1;strokeColor=none;" parent="WIyWlLk6GJQsqaUBKTNV-1" vertex="1">
          <mxGeometry x="290" y="610" width="40" height="20" as="geometry" />
        </mxCell>
        <mxCell id="Js1fneWw51zdOUYzD7Qs-10" value="&lt;font face=&quot;Comic Sans MS&quot;&gt;Configuration&lt;/font&gt;" style="rounded=1;whiteSpace=wrap;html=1;fontSize=12;glass=0;strokeWidth=1;shadow=0;gradientDirection=radial;fillStyle=hatch;fillColor=none;strokeColor=#000000;" parent="WIyWlLk6GJQsqaUBKTNV-1" vertex="1">
          <mxGeometry x="550" y="640" width="130" height="40" as="geometry" />
        </mxCell>
        <mxCell id="Js1fneWw51zdOUYzD7Qs-12" value="" style="rounded=0;html=1;jettySize=auto;orthogonalLoop=1;fontSize=11;endArrow=block;endFill=0;endSize=8;strokeWidth=1;shadow=0;labelBackgroundColor=none;edgeStyle=orthogonalEdgeStyle;entryX=0;entryY=0.5;entryDx=0;entryDy=0;exitX=1;exitY=0.5;exitDx=0;exitDy=0;" parent="WIyWlLk6GJQsqaUBKTNV-1" source="Js1fneWw51zdOUYzD7Qs-5" target="Js1fneWw51zdOUYzD7Qs-10" edge="1">
          <mxGeometry x="0.3333" y="20" relative="1" as="geometry">
            <mxPoint as="offset" />
            <mxPoint x="90" y="580" as="sourcePoint" />
            <mxPoint x="180" y="580" as="targetPoint" />
          </mxGeometry>
        </mxCell>
        <mxCell id="Js1fneWw51zdOUYzD7Qs-13" value="init环境" style="rounded=0;whiteSpace=wrap;html=1;strokeColor=none;" parent="WIyWlLk6GJQsqaUBKTNV-1" vertex="1">
          <mxGeometry x="390" y="640" width="60" height="20" as="geometry" />
        </mxCell>
        <mxCell id="Js1fneWw51zdOUYzD7Qs-14" value="&lt;font face=&quot;Comic Sans MS&quot;&gt;parse&lt;/font&gt;" style="rounded=1;whiteSpace=wrap;html=1;fontSize=12;glass=0;strokeWidth=1;shadow=0;gradientDirection=radial;fillStyle=hatch;fillColor=#d5e8d4;strokeColor=#82b366;gradientColor=#97d077;" parent="WIyWlLk6GJQsqaUBKTNV-1" vertex="1">
          <mxGeometry x="170" y="720" width="130" height="40" as="geometry" />
        </mxCell>
        <mxCell id="Js1fneWw51zdOUYzD7Qs-15" value="" style="rounded=0;html=1;jettySize=auto;orthogonalLoop=1;fontSize=11;endArrow=block;endFill=0;endSize=8;strokeWidth=1;shadow=0;labelBackgroundColor=none;edgeStyle=orthogonalEdgeStyle;entryX=0.5;entryY=0;entryDx=0;entryDy=0;exitX=0.5;exitY=1;exitDx=0;exitDy=0;" parent="WIyWlLk6GJQsqaUBKTNV-1" source="Js1fneWw51zdOUYzD7Qs-5" target="Js1fneWw51zdOUYzD7Qs-14" edge="1">
          <mxGeometry x="0.3333" y="20" relative="1" as="geometry">
            <mxPoint as="offset" />
            <mxPoint x="90" y="580" as="sourcePoint" />
            <mxPoint x="180" y="580" as="targetPoint" />
          </mxGeometry>
        </mxCell>
        <mxCell id="Js1fneWw51zdOUYzD7Qs-16" value="&lt;font face=&quot;Comic Sans MS&quot;&gt;解析连接池&lt;/font&gt;" style="rounded=1;whiteSpace=wrap;html=1;fontSize=12;glass=0;strokeWidth=1;shadow=0;gradientDirection=radial;fillStyle=hatch;fillColor=#FF8000;strokeColor=#FF8000;gradientColor=none;" parent="WIyWlLk6GJQsqaUBKTNV-1" vertex="1">
          <mxGeometry x="360" y="720" width="130" height="40" as="geometry" />
        </mxCell>
        <mxCell id="Js1fneWw51zdOUYzD7Qs-17" value="&lt;font face=&quot;Comic Sans MS&quot;&gt;Environment&lt;/font&gt;" style="rounded=1;whiteSpace=wrap;html=1;fontSize=12;glass=0;strokeWidth=1;shadow=0;gradientDirection=radial;fillStyle=hatch;fillColor=#FF8000;strokeColor=#FF8000;gradientColor=none;" parent="WIyWlLk6GJQsqaUBKTNV-1" vertex="1">
          <mxGeometry x="550" y="720" width="130" height="40" as="geometry" />
        </mxCell>
        <mxCell id="Js1fneWw51zdOUYzD7Qs-18" value="&lt;font face=&quot;Comic Sans MS&quot;&gt;事务工厂(TransitionFactor)&lt;br&gt;数据源(Druid)&lt;/font&gt;" style="rounded=1;whiteSpace=wrap;html=1;fontSize=12;glass=0;strokeWidth=1;shadow=0;gradientDirection=radial;fillStyle=hatch;fillColor=#FF8000;strokeColor=#FF8000;gradientColor=none;" parent="WIyWlLk6GJQsqaUBKTNV-1" vertex="1">
          <mxGeometry x="360" y="790" width="320" height="40" as="geometry" />
        </mxCell>
        <mxCell id="Js1fneWw51zdOUYzD7Qs-19" value="" style="rounded=0;html=1;jettySize=auto;orthogonalLoop=1;fontSize=11;endArrow=block;endFill=0;endSize=8;strokeWidth=1;shadow=0;labelBackgroundColor=none;edgeStyle=orthogonalEdgeStyle;entryX=0;entryY=0.5;entryDx=0;entryDy=0;exitX=1;exitY=0.5;exitDx=0;exitDy=0;" parent="WIyWlLk6GJQsqaUBKTNV-1" source="Js1fneWw51zdOUYzD7Qs-14" target="Js1fneWw51zdOUYzD7Qs-16" edge="1">
          <mxGeometry x="0.3333" y="20" relative="1" as="geometry">
            <mxPoint as="offset" />
            <mxPoint x="245" y="690" as="sourcePoint" />
            <mxPoint x="245" y="730" as="targetPoint" />
          </mxGeometry>
        </mxCell>
        <mxCell id="Js1fneWw51zdOUYzD7Qs-20" value="" style="rounded=0;html=1;jettySize=auto;orthogonalLoop=1;fontSize=11;endArrow=block;endFill=0;endSize=8;strokeWidth=1;shadow=0;labelBackgroundColor=none;edgeStyle=orthogonalEdgeStyle;entryX=0;entryY=0.5;entryDx=0;entryDy=0;" parent="WIyWlLk6GJQsqaUBKTNV-1" target="Js1fneWw51zdOUYzD7Qs-17" edge="1">
          <mxGeometry x="0.3333" y="20" relative="1" as="geometry">
            <mxPoint as="offset" />
            <mxPoint x="490" y="740" as="sourcePoint" />
            <mxPoint x="370" y="750" as="targetPoint" />
          </mxGeometry>
        </mxCell>
        <mxCell id="Js1fneWw51zdOUYzD7Qs-22" value="" style="curved=1;endArrow=block;html=1;rounded=0;exitX=0.5;exitY=1;exitDx=0;exitDy=0;entryX=0.528;entryY=0;entryDx=0;entryDy=0;entryPerimeter=0;endFill=0;" parent="WIyWlLk6GJQsqaUBKTNV-1" edge="1">
          <mxGeometry width="50" height="50" relative="1" as="geometry">
            <mxPoint x="606.04" y="760" as="sourcePoint" />
            <mxPoint x="520" y="790" as="targetPoint" />
            <Array as="points">
              <mxPoint x="606" y="790" />
              <mxPoint x="561.04" y="770" />
            </Array>
          </mxGeometry>
        </mxCell>
        <mxCell id="Js1fneWw51zdOUYzD7Qs-24" value="&lt;font face=&quot;Comic Sans MS&quot;&gt;maperElement&lt;/font&gt;" style="rounded=1;whiteSpace=wrap;html=1;fontSize=12;glass=0;strokeWidth=1;shadow=0;gradientDirection=radial;fillStyle=hatch;fillColor=#d5e8d4;strokeColor=#82b366;gradientColor=#97d077;" parent="WIyWlLk6GJQsqaUBKTNV-1" vertex="1">
          <mxGeometry x="170" y="790" width="130" height="40" as="geometry" />
        </mxCell>
        <mxCell id="Js1fneWw51zdOUYzD7Qs-25" value="" style="rounded=0;html=1;jettySize=auto;orthogonalLoop=1;fontSize=11;endArrow=block;endFill=0;endSize=8;strokeWidth=1;shadow=0;labelBackgroundColor=none;edgeStyle=orthogonalEdgeStyle;entryX=0.5;entryY=0;entryDx=0;entryDy=0;exitX=0.5;exitY=1;exitDx=0;exitDy=0;" parent="WIyWlLk6GJQsqaUBKTNV-1" source="Js1fneWw51zdOUYzD7Qs-14" target="Js1fneWw51zdOUYzD7Qs-24" edge="1">
          <mxGeometry x="0.3333" y="20" relative="1" as="geometry">
            <mxPoint as="offset" />
            <mxPoint x="245" y="690" as="sourcePoint" />
            <mxPoint x="245" y="730" as="targetPoint" />
          </mxGeometry>
        </mxCell>
        <mxCell id="Js1fneWw51zdOUYzD7Qs-26" value="解析XML" style="rounded=0;whiteSpace=wrap;html=1;strokeColor=none;" parent="WIyWlLk6GJQsqaUBKTNV-1" vertex="1">
          <mxGeometry x="240" y="690" width="80" height="20" as="geometry" />
        </mxCell>
        <mxCell id="Js1fneWw51zdOUYzD7Qs-27" value="解析fragment" style="rounded=0;whiteSpace=wrap;html=1;strokeColor=none;" parent="WIyWlLk6GJQsqaUBKTNV-1" vertex="1">
          <mxGeometry x="250" y="765" width="80" height="20" as="geometry" />
        </mxCell>
        <mxCell id="Js1fneWw51zdOUYzD7Qs-28" value="&lt;font face=&quot;Comic Sans MS&quot;&gt;XMLMapperBuilder&lt;/font&gt;" style="rounded=1;whiteSpace=wrap;html=1;fontSize=12;glass=0;strokeWidth=1;shadow=0;gradientDirection=radial;fillStyle=auto;fillColor=#ffcc99;strokeColor=#36393d;" parent="WIyWlLk6GJQsqaUBKTNV-1" vertex="1">
          <mxGeometry x="170" y="870" width="130" height="40" as="geometry" />
        </mxCell>
        <mxCell id="Js1fneWw51zdOUYzD7Qs-29" value="" style="rounded=0;html=1;jettySize=auto;orthogonalLoop=1;fontSize=11;endArrow=block;endFill=0;endSize=8;strokeWidth=1;shadow=0;labelBackgroundColor=none;edgeStyle=orthogonalEdgeStyle;exitX=0.5;exitY=1;exitDx=0;exitDy=0;" parent="WIyWlLk6GJQsqaUBKTNV-1" source="Js1fneWw51zdOUYzD7Qs-24" target="Js1fneWw51zdOUYzD7Qs-28" edge="1">
          <mxGeometry x="0.3333" y="20" relative="1" as="geometry">
            <mxPoint as="offset" />
            <mxPoint x="245" y="770" as="sourcePoint" />
            <mxPoint x="245" y="800" as="targetPoint" />
          </mxGeometry>
        </mxCell>
        <mxCell id="Js1fneWw51zdOUYzD7Qs-30" value="&lt;font face=&quot;Comic Sans MS&quot;&gt;XMLStatementBuilder&lt;/font&gt;" style="rounded=1;whiteSpace=wrap;html=1;fontSize=12;glass=0;strokeWidth=1;shadow=0;gradientDirection=radial;fillStyle=auto;fillColor=#ffcc99;strokeColor=#36393d;" parent="WIyWlLk6GJQsqaUBKTNV-1" vertex="1">
          <mxGeometry x="170" y="950" width="130" height="40" as="geometry" />
        </mxCell>
        <mxCell id="Js1fneWw51zdOUYzD7Qs-31" value="" style="rounded=0;html=1;jettySize=auto;orthogonalLoop=1;fontSize=11;endArrow=block;endFill=0;endSize=8;strokeWidth=1;shadow=0;labelBackgroundColor=none;edgeStyle=orthogonalEdgeStyle;" parent="WIyWlLk6GJQsqaUBKTNV-1" target="Js1fneWw51zdOUYzD7Qs-30" edge="1">
          <mxGeometry x="0.3333" y="20" relative="1" as="geometry">
            <mxPoint as="offset" />
            <mxPoint x="235" y="910" as="sourcePoint" />
            <mxPoint x="245" y="880" as="targetPoint" />
          </mxGeometry>
        </mxCell>
        <mxCell id="Js1fneWw51zdOUYzD7Qs-32" value="&lt;font face=&quot;Comic Sans MS&quot;&gt;MapperRegistry&lt;/font&gt;" style="rounded=1;whiteSpace=wrap;html=1;fontSize=12;glass=0;strokeWidth=1;shadow=0;gradientDirection=radial;fillStyle=hatch;fillColor=#FF8000;strokeColor=#FF8000;gradientColor=none;" parent="WIyWlLk6GJQsqaUBKTNV-1" vertex="1">
          <mxGeometry x="360" y="870" width="130" height="40" as="geometry" />
        </mxCell>
        <mxCell id="Js1fneWw51zdOUYzD7Qs-33" value="&lt;font face=&quot;Comic Sans MS&quot;&gt;LuaguageDriver&lt;/font&gt;" style="rounded=1;whiteSpace=wrap;html=1;fontSize=12;glass=0;strokeWidth=1;shadow=0;gradientDirection=radial;fillStyle=hatch;fillColor=#FF8000;strokeColor=#FF8000;gradientColor=none;" parent="WIyWlLk6GJQsqaUBKTNV-1" vertex="1">
          <mxGeometry x="550" y="870" width="130" height="40" as="geometry" />
        </mxCell>
        <mxCell id="Js1fneWw51zdOUYzD7Qs-34" value="初始构建器" style="rounded=0;whiteSpace=wrap;html=1;strokeColor=none;" parent="WIyWlLk6GJQsqaUBKTNV-1" vertex="1">
          <mxGeometry x="245" y="840" width="80" height="20" as="geometry" />
        </mxCell>
        <mxCell id="Js1fneWw51zdOUYzD7Qs-35" value="初始语句构建器" style="rounded=0;whiteSpace=wrap;html=1;strokeColor=none;" parent="WIyWlLk6GJQsqaUBKTNV-1" vertex="1">
          <mxGeometry x="253" y="920" width="90" height="20" as="geometry" />
        </mxCell>
        <mxCell id="Js1fneWw51zdOUYzD7Qs-41" value="&lt;font face=&quot;Comic Sans MS&quot;&gt;LanguageDriver&lt;/font&gt;" style="rounded=1;whiteSpace=wrap;html=1;fontSize=12;glass=0;strokeWidth=1;shadow=0;gradientDirection=radial;fillStyle=auto;fillColor=#ffcc99;strokeColor=#36393d;" parent="WIyWlLk6GJQsqaUBKTNV-1" vertex="1">
          <mxGeometry x="170" y="1025" width="130" height="40" as="geometry" />
        </mxCell>
        <mxCell id="Js1fneWw51zdOUYzD7Qs-43" value="" style="rounded=0;html=1;jettySize=auto;orthogonalLoop=1;fontSize=11;endArrow=block;endFill=0;endSize=8;strokeWidth=1;shadow=0;labelBackgroundColor=none;edgeStyle=orthogonalEdgeStyle;entryX=0.5;entryY=0;entryDx=0;entryDy=0;exitX=0.462;exitY=1;exitDx=0;exitDy=0;exitPerimeter=0;" parent="WIyWlLk6GJQsqaUBKTNV-1" source="Js1fneWw51zdOUYzD7Qs-30" target="Js1fneWw51zdOUYzD7Qs-41" edge="1">
          <mxGeometry x="0.3333" y="20" relative="1" as="geometry">
            <mxPoint as="offset" />
            <mxPoint x="245" y="920" as="sourcePoint" />
            <mxPoint x="245" y="960" as="targetPoint" />
          </mxGeometry>
        </mxCell>
        <mxCell id="Js1fneWw51zdOUYzD7Qs-44" value="&lt;font face=&quot;Comic Sans MS&quot;&gt;DynamicSqlSource&lt;/font&gt;" style="rounded=1;whiteSpace=wrap;html=1;fontSize=12;glass=0;strokeWidth=1;shadow=0;gradientDirection=radial;fillStyle=auto;fillColor=#ffcccc;strokeColor=#36393d;" parent="WIyWlLk6GJQsqaUBKTNV-1" vertex="1">
          <mxGeometry x="360" y="1025" width="130" height="40" as="geometry" />
        </mxCell>
        <mxCell id="Js1fneWw51zdOUYzD7Qs-45" value="" style="rounded=0;html=1;jettySize=auto;orthogonalLoop=1;fontSize=11;endArrow=block;endFill=0;endSize=8;strokeWidth=1;shadow=0;labelBackgroundColor=none;edgeStyle=orthogonalEdgeStyle;entryX=0;entryY=0.5;entryDx=0;entryDy=0;" parent="WIyWlLk6GJQsqaUBKTNV-1" target="Js1fneWw51zdOUYzD7Qs-44" edge="1">
          <mxGeometry x="0.3333" y="20" relative="1" as="geometry">
            <mxPoint as="offset" />
            <mxPoint x="300" y="1045" as="sourcePoint" />
            <mxPoint x="245" y="1035" as="targetPoint" />
          </mxGeometry>
        </mxCell>
        <mxCell id="Js1fneWw51zdOUYzD7Qs-47" value="&lt;font face=&quot;Comic Sans MS&quot;&gt;RawSqlSource&lt;/font&gt;" style="rounded=1;whiteSpace=wrap;html=1;fontSize=12;glass=0;strokeWidth=1;shadow=0;gradientDirection=radial;fillStyle=auto;fillColor=#ffcccc;strokeColor=#36393d;" parent="WIyWlLk6GJQsqaUBKTNV-1" vertex="1">
          <mxGeometry x="360" y="950" width="130" height="40" as="geometry" />
        </mxCell>
        <mxCell id="Js1fneWw51zdOUYzD7Qs-49" value="动态SQL，本次改造" style="rounded=0;whiteSpace=wrap;html=1;strokeColor=none;" parent="WIyWlLk6GJQsqaUBKTNV-1" vertex="1">
          <mxGeometry x="370" y="1070" width="120" height="20" as="geometry" />
        </mxCell>
        <mxCell id="Js1fneWw51zdOUYzD7Qs-50" value="静态SQL忽略跳过" style="rounded=0;whiteSpace=wrap;html=1;strokeColor=none;" parent="WIyWlLk6GJQsqaUBKTNV-1" vertex="1">
          <mxGeometry x="365" y="990" width="120" height="20" as="geometry" />
        </mxCell>
        <mxCell id="Js1fneWw51zdOUYzD7Qs-51" value="&lt;font face=&quot;Comic Sans MS&quot;&gt;全参数SQL&lt;/font&gt;" style="rounded=1;whiteSpace=wrap;html=1;fontSize=12;glass=0;strokeWidth=1;shadow=0;gradientDirection=radial;fillStyle=auto;" parent="WIyWlLk6GJQsqaUBKTNV-1" vertex="1">
          <mxGeometry x="550" y="950" width="130" height="40" as="geometry" />
        </mxCell>
        <mxCell id="Js1fneWw51zdOUYzD7Qs-52" value="&lt;font face=&quot;Comic Sans MS&quot;&gt;无参数SQL&lt;/font&gt;" style="rounded=1;whiteSpace=wrap;html=1;fontSize=12;glass=0;strokeWidth=1;shadow=0;gradientDirection=radial;fillStyle=auto;" parent="WIyWlLk6GJQsqaUBKTNV-1" vertex="1">
          <mxGeometry x="550" y="1025" width="130" height="40" as="geometry" />
        </mxCell>
        <mxCell id="Js1fneWw51zdOUYzD7Qs-54" value="" style="rounded=0;html=1;jettySize=auto;orthogonalLoop=1;fontSize=11;endArrow=block;endFill=0;endSize=8;strokeWidth=1;shadow=0;labelBackgroundColor=none;edgeStyle=orthogonalEdgeStyle;entryX=0;entryY=0.5;entryDx=0;entryDy=0;exitX=1;exitY=0.5;exitDx=0;exitDy=0;" parent="WIyWlLk6GJQsqaUBKTNV-1" source="Js1fneWw51zdOUYzD7Qs-44" target="Js1fneWw51zdOUYzD7Qs-52" edge="1">
          <mxGeometry x="0.3333" y="20" relative="1" as="geometry">
            <mxPoint as="offset" />
            <mxPoint x="310" y="1055" as="sourcePoint" />
            <mxPoint x="370" y="1055" as="targetPoint" />
          </mxGeometry>
        </mxCell>
        <mxCell id="Js1fneWw51zdOUYzD7Qs-56" value="" style="curved=1;endArrow=block;html=1;rounded=0;entryX=0;entryY=0.5;entryDx=0;entryDy=0;exitX=1;exitY=0.5;exitDx=0;exitDy=0;endFill=0;" parent="WIyWlLk6GJQsqaUBKTNV-1" source="Js1fneWw51zdOUYzD7Qs-44" target="Js1fneWw51zdOUYzD7Qs-51" edge="1">
          <mxGeometry width="50" height="50" relative="1" as="geometry">
            <mxPoint x="490" y="1050" as="sourcePoint" />
            <mxPoint x="540" y="1000" as="targetPoint" />
            <Array as="points">
              <mxPoint x="540" y="1050" />
              <mxPoint x="490" y="1000" />
            </Array>
          </mxGeometry>
        </mxCell>
      </root>
    </mxGraphModel>
  </diagram>
</mxfile>
